# xmcd
#
# Track frame offsets:
#	150
#	21605
#	43617
#	67450
#	84425
#	104457
#	131832
#	153212
#	182045
#	203490
#
# Disc length: 3190 seconds
# Revision: 3
# Processed by: cddbd v1.5.2PL0 Copyright (c) Steve Scherf et al.
# Submitted via: dBpowerAMP V12.0
#
DISCID=8c0c740a
DTITLE=Various Artist - Coi vang
DYEAR=2004
DGENRE=Pop
TTITLE0=Tran Thai Hoa - Thuo ay co em
TTITLE1=Tran Thai Hoa - Hat mua buon
TTITLE2=Tran Thai Hoa - Chuyen tinh buon
TTITLE3=Tran Thai Hoa - Mot thoang mo phai
TTITLE4=Tran Thai Hoa - Coi vang
TTITLE5=Tran Thai Hoa - Hai nam tinh lan dan
TTITLE6=Tran Thai Hoa and Ninh Cat Loan Chau - Tra lai em yeu
TTITLE7=Tran Thai Hoa - Mua hoa bo lai
TTITLE8=Tran Thai Hoa - Nghe nhung tan phai
TTITLE9=Tran Thai Hoa - Ao anh sut chi duong ta
EXTD=
EXTT0=
EXTT1=
EXTT2=
EXTT3=
EXTT4=
EXTT5=
EXTT6=
EXTT7=
EXTT8=
EXTT9=
PLAYORDER=
